<svg width="16" height="14" viewBox="0 0 16 14" fill="none" xmlns="http://www.w3.org/2000/svg">
<path fill-rule="evenodd" clip-rule="evenodd" d="M0 4C0 1.79086 1.79086 0 4 0H12C14.0052 0 15.6658 1.47549 15.9553 3.4H12C10.5641 3.4 9.4 4.56406 9.4 6V8C9.4 9.43594 10.5641 10.6 12 10.6H15.9553C15.6658 12.5245 14.0052 14 12 14H4C1.79086 14 0 12.2091 0 10V4ZM16 4.6V9.4H12C11.2268 9.4 10.6 8.7732 10.6 8V6C10.6 5.2268 11.2268 4.6 12 4.6H16ZM14 7C14 7.55228 13.5523 8 13 8C12.4477 8 12 7.55228 12 7C12 6.44772 12.4477 6 13 6C13.5523 6 14 6.44772 14 7Z" fill="#F4C000"/>
</svg>
