<svg width="16" height="18" viewBox="0 0 16 18" fill="none" xmlns="http://www.w3.org/2000/svg">
<path d="M5.00001 1C5.00001 0.447723 5.44772 0 6.00001 0C6.5523 0 7.00001 0.447723 7.00001 1V2H9.00001V1C9.00001 0.447723 9.44771 0 10 0C10.5523 0 11 0.447723 11 1V2H12.9923C14.0484 2 14.9225 2.82117 14.9884 3.87524L15.0587 5H0.683677L0.753974 3.87524C0.819847 2.82117 1.69395 2 2.75008 2H5.00001V1Z" fill="white"/>
<path d="M15.1837 7H0.558677L0.00397436 15.8752C-0.0679861 17.0266 0.846443 18 2.00008 18H13.7423C14.8959 18 15.8103 17.0266 15.7384 15.8752L15.1837 7Z" fill="white"/>
</svg>
