<svg width="16" height="16" viewBox="0 0 16 16" fill="none" xmlns="http://www.w3.org/2000/svg">
<path fill-rule="evenodd" clip-rule="evenodd" d="M7.5983 0C6.57221 0 5.58535 0.39432 4.8418 1.10142L1.24351 4.52333C0.449495 5.27842 0 6.32618 0 7.42191V12C0 14.2091 1.79086 16 4 16H12C14.2091 16 16 14.2091 16 12V7.42191C16 6.32618 15.5505 5.27842 14.7565 4.52333L11.1582 1.10142C10.4146 0.39432 9.42779 0 8.4017 0H7.5983ZM5.99999 11.15C5.53055 11.15 5.14999 11.5306 5.14999 12C5.14999 12.4694 5.53055 12.85 5.99999 12.85H9.99999C10.4694 12.85 10.85 12.4694 10.85 12C10.85 11.5306 10.4694 11.15 9.99999 11.15H5.99999Z" fill="#85847E"/>
</svg>
