<svg width="12" height="17" viewBox="0 0 12 17" fill="none" xmlns="http://www.w3.org/2000/svg">
<path d="M1.98006 2.477C2.59721 0.978195 4.05788 0 5.67877 0H6.32123C7.94212 0 9.40279 0.978194 10.0199 2.477L10.0539 2.55939C10.512 3.67212 10.7133 4.87387 10.6426 6.07517L10.5726 7.26659C10.5253 8.07014 10.7215 8.86924 11.1357 9.55947L11.6652 10.442C11.8843 10.8071 12 11.2249 12 11.6507C12 12.9482 10.9482 14 9.65071 14H2.34929C1.05181 14 0 12.9482 0 11.6507C0 11.2249 0.115721 10.8071 0.33479 10.442L0.864321 9.55947C1.27845 8.86924 1.47471 8.07014 1.42745 7.26659L1.35736 6.07517C1.2867 4.87387 1.48795 3.67212 1.94613 2.55939L1.98006 2.477Z" fill="white"/>
<path fill-rule="evenodd" clip-rule="evenodd" d="M3.1499 16C3.1499 15.5306 3.53046 15.15 3.9999 15.15H7.9999C8.46934 15.15 8.8499 15.5306 8.8499 16C8.8499 16.4694 8.46934 16.85 7.9999 16.85H3.9999C3.53046 16.85 3.1499 16.4694 3.1499 16Z" fill="white"/>
</svg>
