<svg width="18" height="25" viewBox="0 0 18 25" fill="none" xmlns="http://www.w3.org/2000/svg">
<rect x="2.94922" y="4" width="12" height="8" rx="2" fill="#DF3462"/>
<rect x="1.94922" y="6" width="3" height="4" rx="1" fill="#DF3462"/>
<rect x="12.9492" y="6" width="3" height="4" rx="1" fill="#DF3462"/>
<rect x="5.94922" y="7" width="2" height="2" rx="1" fill="white"/>
<rect x="9.94922" y="7" width="2" height="2" rx="1" fill="white"/>
<rect x="7.94922" y="12" width="2" height="2" fill="#DF3462"/>
<rect x="4.94922" y="0.707108" width="1" height="4" rx="0.5" transform="rotate(-45 4.94922 0.707108)" fill="#DF3462"/>
<rect width="1" height="4" rx="0.5" transform="matrix(-0.707107 -0.707107 -0.707107 0.707107 13.4849 0.707108)" fill="#DF3462"/>
<path fill-rule="evenodd" clip-rule="evenodd" d="M17.8986 22.039C15.4004 23.8991 12.3034 25 8.9493 25C5.59521 25 2.49824 23.8991 0 22.039C0.479641 17.5203 4.30336 14 8.9493 14C13.5952 14 17.419 17.5203 17.8986 22.039Z" fill="#DF3462"/>
</svg>
